<mxfile host="Electron" modified="2023-10-25T11:46:27.733Z" agent="Mozilla/5.0 (X11; Linux x86_64) AppleWebKit/537.36 (KHTML, like Gecko) draw.io/22.0.2 Chrome/114.0.5735.289 Electron/25.8.4 Safari/537.36" etag="HWn6OsjX9Rt9hQrbAKdt" version="22.0.2" type="device">
  <diagram name="Page-1" id="dlh2HGEMS9u2Ikbi2MeV">
    <mxGraphModel dx="1242" dy="1965" grid="1" gridSize="10" guides="1" tooltips="1" connect="1" arrows="1" fold="1" page="1" pageScale="1" pageWidth="850" pageHeight="1100" math="0" shadow="0">
      <root>
        <mxCell id="0" />
        <mxCell id="1" parent="0" />
        <mxCell id="jdgYiCKV-6AsK4i46VtF-1" value="" style="rounded=0;whiteSpace=wrap;html=1;fillColor=#dae8fc;strokeColor=#6c8ebf;" parent="1" vertex="1">
          <mxGeometry x="100" y="210" width="310" height="280" as="geometry" />
        </mxCell>
        <mxCell id="jdgYiCKV-6AsK4i46VtF-4" value="signal-estimator" style="rounded=0;whiteSpace=wrap;html=1;fillColor=#F7FFF5;strokeColor=#666666;fontColor=#333333;fontStyle=1" parent="1" vertex="1">
          <mxGeometry x="110" y="325" width="120" height="60" as="geometry" />
        </mxCell>
        <mxCell id="jdgYiCKV-6AsK4i46VtF-5" value="output&lt;br&gt;ALSA device" style="rounded=0;whiteSpace=wrap;html=1;fillColor=#f5f5f5;strokeColor=#666666;fontColor=#333333;fontStyle=1" parent="1" vertex="1">
          <mxGeometry x="270" y="240" width="120" height="50" as="geometry" />
        </mxCell>
        <mxCell id="jdgYiCKV-6AsK4i46VtF-6" value="input&lt;br&gt;ALSA device" style="rounded=0;whiteSpace=wrap;html=1;fillColor=#f5f5f5;strokeColor=#666666;fontColor=#333333;fontStyle=1" parent="1" vertex="1">
          <mxGeometry x="270" y="330" width="120" height="50" as="geometry" />
        </mxCell>
        <mxCell id="jdgYiCKV-6AsK4i46VtF-8" value="" style="endArrow=classic;html=1;rounded=0;" parent="1" source="jdgYiCKV-6AsK4i46VtF-4" target="jdgYiCKV-6AsK4i46VtF-5" edge="1">
          <mxGeometry width="50" height="50" relative="1" as="geometry">
            <mxPoint x="240" y="220" as="sourcePoint" />
            <mxPoint x="290" y="170" as="targetPoint" />
          </mxGeometry>
        </mxCell>
        <mxCell id="jdgYiCKV-6AsK4i46VtF-11" value="" style="endArrow=classic;html=1;rounded=0;" parent="1" source="jdgYiCKV-6AsK4i46VtF-6" target="jdgYiCKV-6AsK4i46VtF-4" edge="1">
          <mxGeometry width="50" height="50" relative="1" as="geometry">
            <mxPoint x="240" y="220" as="sourcePoint" />
            <mxPoint x="290" y="170" as="targetPoint" />
          </mxGeometry>
        </mxCell>
        <mxCell id="jdgYiCKV-6AsK4i46VtF-12" value="PC" style="text;html=1;strokeColor=none;fillColor=none;align=center;verticalAlign=middle;whiteSpace=wrap;rounded=0;fontStyle=1;fontSize=16;" parent="1" vertex="1">
          <mxGeometry x="110" y="230" width="60" height="30" as="geometry" />
        </mxCell>
        <mxCell id="H8G9I3JoE38qBTgvnNji-30" value="" style="rounded=0;whiteSpace=wrap;html=1;fillColor=#fff2cc;strokeColor=#d6b656;" parent="1" vertex="1">
          <mxGeometry x="480" y="430" width="80" height="60" as="geometry" />
        </mxCell>
        <mxCell id="H8G9I3JoE38qBTgvnNji-31" value="" style="ellipse;whiteSpace=wrap;html=1;aspect=fixed;fillColor=#f5f5f5;fontColor=#333333;strokeColor=#666666;" parent="1" vertex="1">
          <mxGeometry x="500" y="410" width="40" height="40" as="geometry" />
        </mxCell>
        <mxCell id="H8G9I3JoE38qBTgvnNji-32" value="sound&lt;br&gt;card" style="text;html=1;strokeColor=none;fillColor=none;align=center;verticalAlign=middle;whiteSpace=wrap;rounded=0;fontStyle=1;fontSize=16;" parent="1" vertex="1">
          <mxGeometry x="480" y="450" width="80" height="30" as="geometry" />
        </mxCell>
        <mxCell id="H8G9I3JoE38qBTgvnNji-37" value="" style="rounded=0;whiteSpace=wrap;html=1;fillColor=#fff2cc;strokeColor=#d6b656;" parent="1" vertex="1">
          <mxGeometry x="660" y="430" width="80" height="60" as="geometry" />
        </mxCell>
        <mxCell id="H8G9I3JoE38qBTgvnNji-38" value="" style="ellipse;whiteSpace=wrap;html=1;aspect=fixed;fillColor=#f5f5f5;fontColor=#333333;strokeColor=#666666;" parent="1" vertex="1">
          <mxGeometry x="680" y="410" width="40" height="40" as="geometry" />
        </mxCell>
        <mxCell id="H8G9I3JoE38qBTgvnNji-39" value="sound&lt;br&gt;card" style="text;html=1;strokeColor=none;fillColor=none;align=center;verticalAlign=middle;whiteSpace=wrap;rounded=0;fontStyle=1;fontSize=16;" parent="1" vertex="1">
          <mxGeometry x="660" y="450" width="80" height="30" as="geometry" />
        </mxCell>
        <mxCell id="H8G9I3JoE38qBTgvnNji-43" value="" style="endArrow=classic;html=1;rounded=0;fillColor=#e51400;strokeColor=#B20000;strokeWidth=2;" parent="1" source="QFHJZdolUIHKQ8WvCYE6-33" target="H8G9I3JoE38qBTgvnNji-31" edge="1">
          <mxGeometry width="50" height="50" relative="1" as="geometry">
            <mxPoint x="520" y="450" as="sourcePoint" />
            <mxPoint x="530" y="335" as="targetPoint" />
            <Array as="points" />
          </mxGeometry>
        </mxCell>
        <mxCell id="H8G9I3JoE38qBTgvnNji-44" value="" style="endArrow=classic;html=1;rounded=0;fillColor=#e51400;strokeColor=#B20000;strokeWidth=2;" parent="1" source="QFHJZdolUIHKQ8WvCYE6-44" target="H8G9I3JoE38qBTgvnNji-38" edge="1">
          <mxGeometry width="50" height="50" relative="1" as="geometry">
            <mxPoint x="700" y="450" as="sourcePoint" />
            <mxPoint x="560" y="480" as="targetPoint" />
            <Array as="points" />
          </mxGeometry>
        </mxCell>
        <mxCell id="H8G9I3JoE38qBTgvnNji-46" value="input&lt;br&gt;ALSA device" style="rounded=0;whiteSpace=wrap;html=1;fillColor=#f5f5f5;strokeColor=#666666;fontColor=#333333;fontStyle=1" parent="1" vertex="1">
          <mxGeometry x="270" y="420" width="120" height="50" as="geometry" />
        </mxCell>
        <mxCell id="H8G9I3JoE38qBTgvnNji-47" value="" style="endArrow=classic;html=1;rounded=0;" parent="1" source="H8G9I3JoE38qBTgvnNji-46" target="jdgYiCKV-6AsK4i46VtF-4" edge="1">
          <mxGeometry width="50" height="50" relative="1" as="geometry">
            <mxPoint x="280" y="365" as="sourcePoint" />
            <mxPoint x="240" y="365" as="targetPoint" />
          </mxGeometry>
        </mxCell>
        <mxCell id="H8G9I3JoE38qBTgvnNji-53" value="" style="endArrow=classic;html=1;rounded=0;fillColor=#e51400;strokeColor=#B20000;strokeWidth=2;" parent="1" source="H8G9I3JoE38qBTgvnNji-31" target="jdgYiCKV-6AsK4i46VtF-6" edge="1">
          <mxGeometry width="50" height="50" relative="1" as="geometry">
            <mxPoint x="400" y="278" as="sourcePoint" />
            <mxPoint x="580" y="289" as="targetPoint" />
            <Array as="points" />
          </mxGeometry>
        </mxCell>
        <mxCell id="H8G9I3JoE38qBTgvnNji-54" value="" style="endArrow=classic;html=1;fillColor=#e51400;strokeColor=#B20000;strokeWidth=2;rounded=0;" parent="1" source="H8G9I3JoE38qBTgvnNji-38" target="H8G9I3JoE38qBTgvnNji-46" edge="1">
          <mxGeometry width="50" height="50" relative="1" as="geometry">
            <mxPoint x="514" y="488" as="sourcePoint" />
            <mxPoint x="375" y="390" as="targetPoint" />
            <Array as="points">
              <mxPoint x="590" y="520" />
              <mxPoint x="520" y="520" />
            </Array>
          </mxGeometry>
        </mxCell>
        <mxCell id="H8G9I3JoE38qBTgvnNji-57" value="" style="shape=image;verticalLabelPosition=bottom;labelBackgroundColor=default;verticalAlign=top;aspect=fixed;imageAspect=0;image=data:image/svg+xml,PHN2ZyB4bWxucz0iaHR0cDovL3d3dy53My5vcmcvMjAwMC9zdmciIHdpZHRoPSIyNCIgdmlld0JveD0iMCAtOTYwIDk2MCA5NjAiIGhlaWdodD0iMjQiPjxwYXRoIGQ9Ik00ODAtNDAwcS01MCAwLTg1LTM1dC0zNS04NXYtMjQwcTAtNTAgMzUtODV0ODUtMzVxNTAgMCA4NSAzNXQzNSA4NXYyNDBxMCA1MC0zNSA4NXQtODUgMzVabTAtMjQwWm0tNDAgNTIwdi0xMjNxLTEwNC0xNC0xNzItOTN0LTY4LTE4NGg4MHEwIDgzIDU4LjUgMTQxLjVUNDgwLTMyMHE4MyAwIDE0MS41LTU4LjVUNjgwLTUyMGg4MHEwIDEwNS02OCAxODR0LTE3MiA5M3YxMjNoLTgwWm00MC0zNjBxMTcgMCAyOC41LTExLjVUNTIwLTUyMHYtMjQwcTAtMTctMTEuNS0yOC41VDQ4MC04MDBxLTE3IDAtMjguNSAxMS41VDQ0MC03NjB2MjQwcTAgMTcgMTEuNSAyOC41VDQ4MC00ODBaIi8+PC9zdmc+;" parent="1" vertex="1">
          <mxGeometry x="510" y="420" width="20" height="20" as="geometry" />
        </mxCell>
        <mxCell id="H8G9I3JoE38qBTgvnNji-58" value="" style="shape=image;verticalLabelPosition=bottom;labelBackgroundColor=default;verticalAlign=top;aspect=fixed;imageAspect=0;image=data:image/svg+xml,PHN2ZyB4bWxucz0iaHR0cDovL3d3dy53My5vcmcvMjAwMC9zdmciIHdpZHRoPSIyNCIgdmlld0JveD0iMCAtOTYwIDk2MCA5NjAiIGhlaWdodD0iMjQiPjxwYXRoIGQ9Ik00ODAtNDAwcS01MCAwLTg1LTM1dC0zNS04NXYtMjQwcTAtNTAgMzUtODV0ODUtMzVxNTAgMCA4NSAzNXQzNSA4NXYyNDBxMCA1MC0zNSA4NXQtODUgMzVabTAtMjQwWm0tNDAgNTIwdi0xMjNxLTEwNC0xNC0xNzItOTN0LTY4LTE4NGg4MHEwIDgzIDU4LjUgMTQxLjVUNDgwLTMyMHE4MyAwIDE0MS41LTU4LjVUNjgwLTUyMGg4MHEwIDEwNS02OCAxODR0LTE3MiA5M3YxMjNoLTgwWm00MC0zNjBxMTcgMCAyOC41LTExLjVUNTIwLTUyMHYtMjQwcTAtMTctMTEuNS0yOC41VDQ4MC04MDBxLTE3IDAtMjguNSAxMS41VDQ0MC03NjB2MjQwcTAgMTcgMTEuNSAyOC41VDQ4MC00ODBaIi8+PC9zdmc+;" parent="1" vertex="1">
          <mxGeometry x="690" y="420" width="20" height="20" as="geometry" />
        </mxCell>
        <mxCell id="QFHJZdolUIHKQ8WvCYE6-8" value="" style="rounded=0;whiteSpace=wrap;html=1;fillColor=#dae8fc;strokeColor=#6c8ebf;" parent="1" vertex="1">
          <mxGeometry x="350" y="-115" width="330" height="110" as="geometry" />
        </mxCell>
        <mxCell id="QFHJZdolUIHKQ8WvCYE6-9" value="input&lt;br&gt;ALSA device" style="rounded=0;whiteSpace=wrap;html=1;fillColor=#f5f5f5;strokeColor=#666666;fontColor=#333333;fontStyle=1" parent="1" vertex="1">
          <mxGeometry x="370" y="-75" width="120" height="50" as="geometry" />
        </mxCell>
        <mxCell id="QFHJZdolUIHKQ8WvCYE6-10" value="" style="endArrow=classic;html=1;rounded=0;strokeWidth=2;strokeColor=#CF0000;" parent="1" source="QFHJZdolUIHKQ8WvCYE6-9" target="QFHJZdolUIHKQ8WvCYE6-22" edge="1">
          <mxGeometry width="50" height="50" relative="1" as="geometry">
            <mxPoint x="370" y="-95" as="sourcePoint" />
            <mxPoint x="410" y="-11" as="targetPoint" />
          </mxGeometry>
        </mxCell>
        <mxCell id="QFHJZdolUIHKQ8WvCYE6-21" value="jack&lt;br&gt;cable" style="text;html=1;strokeColor=none;fillColor=none;align=center;verticalAlign=middle;whiteSpace=wrap;rounded=0;" parent="1" vertex="1">
          <mxGeometry x="520" y="385" width="60" height="30" as="geometry" />
        </mxCell>
        <mxCell id="QFHJZdolUIHKQ8WvCYE6-22" value="network&lt;br&gt;sender" style="rounded=0;whiteSpace=wrap;html=1;fillColor=#f5f5f5;strokeColor=#666666;fontColor=#333333;fontStyle=1" parent="1" vertex="1">
          <mxGeometry x="540" y="-75" width="120" height="50" as="geometry" />
        </mxCell>
        <mxCell id="QFHJZdolUIHKQ8WvCYE6-23" value="" style="rounded=0;whiteSpace=wrap;html=1;fillColor=#dae8fc;strokeColor=#6c8ebf;" parent="1" vertex="1">
          <mxGeometry x="440" y="100" width="160" height="190" as="geometry" />
        </mxCell>
        <mxCell id="QFHJZdolUIHKQ8WvCYE6-24" value="output&lt;br&gt;ALSA device" style="rounded=0;whiteSpace=wrap;html=1;fillColor=#f5f5f5;strokeColor=#666666;fontColor=#333333;fontStyle=1" parent="1" vertex="1">
          <mxGeometry x="460" y="220" width="120" height="50" as="geometry" />
        </mxCell>
        <mxCell id="QFHJZdolUIHKQ8WvCYE6-25" value="" style="endArrow=classic;html=1;rounded=0;strokeWidth=2;strokeColor=#CF0000;" parent="1" source="QFHJZdolUIHKQ8WvCYE6-27" target="QFHJZdolUIHKQ8WvCYE6-24" edge="1">
          <mxGeometry width="50" height="50" relative="1" as="geometry">
            <mxPoint x="540" y="330" as="sourcePoint" />
            <mxPoint x="450" y="204" as="targetPoint" />
          </mxGeometry>
        </mxCell>
        <mxCell id="QFHJZdolUIHKQ8WvCYE6-26" value="DUT" style="text;html=1;strokeColor=none;fillColor=none;align=center;verticalAlign=middle;whiteSpace=wrap;rounded=0;fontStyle=1;fontSize=16;" parent="1" vertex="1">
          <mxGeometry x="480" y="100" width="50" height="30" as="geometry" />
        </mxCell>
        <mxCell id="QFHJZdolUIHKQ8WvCYE6-27" value="network&lt;br&gt;receiver" style="rounded=0;whiteSpace=wrap;html=1;fillColor=#f5f5f5;strokeColor=#666666;fontColor=#333333;fontStyle=1" parent="1" vertex="1">
          <mxGeometry x="460" y="140" width="120" height="50" as="geometry" />
        </mxCell>
        <mxCell id="QFHJZdolUIHKQ8WvCYE6-32" value="" style="rounded=0;whiteSpace=wrap;html=1;fillColor=#fff2cc;strokeColor=#d6b656;" parent="1" vertex="1">
          <mxGeometry x="460" y="310" width="100" height="60" as="geometry" />
        </mxCell>
        <mxCell id="QFHJZdolUIHKQ8WvCYE6-33" value="" style="ellipse;whiteSpace=wrap;html=1;aspect=fixed;fillColor=#f5f5f5;fontColor=#333333;strokeColor=#666666;" parent="1" vertex="1">
          <mxGeometry x="500" y="345" width="40" height="40" as="geometry" />
        </mxCell>
        <mxCell id="QFHJZdolUIHKQ8WvCYE6-34" value="sound&lt;br&gt;card" style="text;html=1;strokeColor=none;fillColor=none;align=center;verticalAlign=middle;whiteSpace=wrap;rounded=0;fontStyle=1;fontSize=16;" parent="1" vertex="1">
          <mxGeometry x="450" y="315" width="80" height="30" as="geometry" />
        </mxCell>
        <mxCell id="QFHJZdolUIHKQ8WvCYE6-35" value="" style="endArrow=classic;html=1;rounded=0;fillColor=#e51400;strokeColor=#B20000;strokeWidth=2;" parent="1" target="QFHJZdolUIHKQ8WvCYE6-33" edge="1">
          <mxGeometry width="50" height="50" relative="1" as="geometry">
            <mxPoint x="520" y="270" as="sourcePoint" />
            <mxPoint x="380" y="300" as="targetPoint" />
            <Array as="points" />
          </mxGeometry>
        </mxCell>
        <mxCell id="QFHJZdolUIHKQ8WvCYE6-37" value="" style="shape=image;verticalLabelPosition=bottom;labelBackgroundColor=default;verticalAlign=top;aspect=fixed;imageAspect=0;image=data:image/svg+xml,PHN2ZyB4bWxucz0iaHR0cDovL3d3dy53My5vcmcvMjAwMC9zdmciIHdpZHRoPSIyNCIgdmlld0JveD0iMCAtOTYwIDk2MCA5NjAiIGhlaWdodD0iMjQiPjxwYXRoIGQ9Ik0zNjAtMTIwSDIwMHEtMzMgMC01Ni41LTIzLjVUMTIwLTIwMHYtMjgwcTAtNzUgMjguNS0xNDAuNXQ3Ny0xMTRxNDguNS00OC41IDExNC03N1Q0ODAtODQwcTc1IDAgMTQwLjUgMjguNXQxMTQgNzdxNDguNSA0OC41IDc3IDExNFQ4NDAtNDgwdjI4MHEwIDMzLTIzLjUgNTYuNVQ3NjAtMTIwSDYwMHYtMzIwaDE2MHYtNDBxMC0xMTctODEuNS0xOTguNVQ0ODAtNzYwcS0xMTcgMC0xOTguNSA4MS41VDIwMC00ODB2NDBoMTYwdjMyMFptLTgwLTI0MGgtODB2MTYwaDgwdi0xNjBabTQwMCAwdjE2MGg4MHYtMTYwaC04MFptLTQwMCAwaC04MCA4MFptNDAwIDBoODAtODBaIi8+PC9zdmc+;" parent="1" vertex="1">
          <mxGeometry x="510" y="355" width="20" height="20" as="geometry" />
        </mxCell>
        <mxCell id="QFHJZdolUIHKQ8WvCYE6-38" value="" style="rounded=0;whiteSpace=wrap;html=1;fillColor=#dae8fc;strokeColor=#6c8ebf;" parent="1" vertex="1">
          <mxGeometry x="620" y="100" width="160" height="190" as="geometry" />
        </mxCell>
        <mxCell id="QFHJZdolUIHKQ8WvCYE6-39" value="output&lt;br&gt;ALSA device" style="rounded=0;whiteSpace=wrap;html=1;fillColor=#f5f5f5;strokeColor=#666666;fontColor=#333333;fontStyle=1" parent="1" vertex="1">
          <mxGeometry x="640" y="220" width="120" height="50" as="geometry" />
        </mxCell>
        <mxCell id="QFHJZdolUIHKQ8WvCYE6-40" value="" style="endArrow=classic;html=1;rounded=0;strokeWidth=2;strokeColor=#CF0000;" parent="1" source="QFHJZdolUIHKQ8WvCYE6-42" target="QFHJZdolUIHKQ8WvCYE6-39" edge="1">
          <mxGeometry width="50" height="50" relative="1" as="geometry">
            <mxPoint x="720" y="330" as="sourcePoint" />
            <mxPoint x="630" y="204" as="targetPoint" />
          </mxGeometry>
        </mxCell>
        <mxCell id="QFHJZdolUIHKQ8WvCYE6-42" value="network&lt;br&gt;receiver" style="rounded=0;whiteSpace=wrap;html=1;fillColor=#f5f5f5;strokeColor=#666666;fontColor=#333333;fontStyle=1" parent="1" vertex="1">
          <mxGeometry x="640" y="140" width="120" height="50" as="geometry" />
        </mxCell>
        <mxCell id="QFHJZdolUIHKQ8WvCYE6-43" value="" style="rounded=0;whiteSpace=wrap;html=1;fillColor=#fff2cc;strokeColor=#d6b656;" parent="1" vertex="1">
          <mxGeometry x="640" y="310" width="100" height="60" as="geometry" />
        </mxCell>
        <mxCell id="QFHJZdolUIHKQ8WvCYE6-44" value="" style="ellipse;whiteSpace=wrap;html=1;aspect=fixed;fillColor=#f5f5f5;fontColor=#333333;strokeColor=#666666;" parent="1" vertex="1">
          <mxGeometry x="680" y="345" width="40" height="40" as="geometry" />
        </mxCell>
        <mxCell id="QFHJZdolUIHKQ8WvCYE6-45" value="sound&lt;br&gt;card" style="text;html=1;strokeColor=none;fillColor=none;align=center;verticalAlign=middle;whiteSpace=wrap;rounded=0;fontStyle=1;fontSize=16;" parent="1" vertex="1">
          <mxGeometry x="630" y="315" width="80" height="30" as="geometry" />
        </mxCell>
        <mxCell id="QFHJZdolUIHKQ8WvCYE6-46" value="" style="endArrow=classic;html=1;rounded=0;fillColor=#e51400;strokeColor=#B20000;strokeWidth=2;" parent="1" target="QFHJZdolUIHKQ8WvCYE6-44" edge="1">
          <mxGeometry width="50" height="50" relative="1" as="geometry">
            <mxPoint x="700" y="270" as="sourcePoint" />
            <mxPoint x="560" y="300" as="targetPoint" />
            <Array as="points" />
          </mxGeometry>
        </mxCell>
        <mxCell id="QFHJZdolUIHKQ8WvCYE6-47" value="" style="shape=image;verticalLabelPosition=bottom;labelBackgroundColor=default;verticalAlign=top;aspect=fixed;imageAspect=0;image=data:image/svg+xml,PHN2ZyB4bWxucz0iaHR0cDovL3d3dy53My5vcmcvMjAwMC9zdmciIHdpZHRoPSIyNCIgdmlld0JveD0iMCAtOTYwIDk2MCA5NjAiIGhlaWdodD0iMjQiPjxwYXRoIGQ9Ik0zNjAtMTIwSDIwMHEtMzMgMC01Ni41LTIzLjVUMTIwLTIwMHYtMjgwcTAtNzUgMjguNS0xNDAuNXQ3Ny0xMTRxNDguNS00OC41IDExNC03N1Q0ODAtODQwcTc1IDAgMTQwLjUgMjguNXQxMTQgNzdxNDguNSA0OC41IDc3IDExNFQ4NDAtNDgwdjI4MHEwIDMzLTIzLjUgNTYuNVQ3NjAtMTIwSDYwMHYtMzIwaDE2MHYtNDBxMC0xMTctODEuNS0xOTguNVQ0ODAtNzYwcS0xMTcgMC0xOTguNSA4MS41VDIwMC00ODB2NDBoMTYwdjMyMFptLTgwLTI0MGgtODB2MTYwaDgwdi0xNjBabTQwMCAwdjE2MGg4MHYtMTYwaC04MFptLTQwMCAwaC04MCA4MFptNDAwIDBoODAtODBaIi8+PC9zdmc+;" parent="1" vertex="1">
          <mxGeometry x="690" y="355" width="20" height="20" as="geometry" />
        </mxCell>
        <mxCell id="QFHJZdolUIHKQ8WvCYE6-49" value="jack&lt;br&gt;cable" style="text;html=1;strokeColor=none;fillColor=none;align=center;verticalAlign=middle;whiteSpace=wrap;rounded=0;" parent="1" vertex="1">
          <mxGeometry x="700" y="385" width="60" height="30" as="geometry" />
        </mxCell>
        <mxCell id="QFHJZdolUIHKQ8WvCYE6-53" value="" style="rounded=0;whiteSpace=wrap;html=1;fillColor=#fff2cc;strokeColor=#d6b656;" parent="1" vertex="1">
          <mxGeometry x="270" y="130" width="100" height="60" as="geometry" />
        </mxCell>
        <mxCell id="QFHJZdolUIHKQ8WvCYE6-54" value="" style="ellipse;whiteSpace=wrap;html=1;aspect=fixed;fillColor=#f5f5f5;fontColor=#333333;strokeColor=#666666;" parent="1" vertex="1">
          <mxGeometry x="310" y="110" width="40" height="40" as="geometry" />
        </mxCell>
        <mxCell id="QFHJZdolUIHKQ8WvCYE6-55" value="sound&lt;br&gt;card" style="text;html=1;strokeColor=none;fillColor=none;align=center;verticalAlign=middle;whiteSpace=wrap;rounded=0;fontStyle=1;fontSize=16;" parent="1" vertex="1">
          <mxGeometry x="260" y="150" width="80" height="30" as="geometry" />
        </mxCell>
        <mxCell id="QFHJZdolUIHKQ8WvCYE6-56" value="" style="shape=image;verticalLabelPosition=bottom;labelBackgroundColor=default;verticalAlign=top;aspect=fixed;imageAspect=0;image=data:image/svg+xml,PHN2ZyB4bWxucz0iaHR0cDovL3d3dy53My5vcmcvMjAwMC9zdmciIHdpZHRoPSIyNCIgdmlld0JveD0iMCAtOTYwIDk2MCA5NjAiIGhlaWdodD0iMjQiPjxwYXRoIGQ9Ik0zNjAtMTIwSDIwMHEtMzMgMC01Ni41LTIzLjVUMTIwLTIwMHYtMjgwcTAtNzUgMjguNS0xNDAuNXQ3Ny0xMTRxNDguNS00OC41IDExNC03N1Q0ODAtODQwcTc1IDAgMTQwLjUgMjguNXQxMTQgNzdxNDguNSA0OC41IDc3IDExNFQ4NDAtNDgwdjI4MHEwIDMzLTIzLjUgNTYuNVQ3NjAtMTIwSDYwMHYtMzIwaDE2MHYtNDBxMC0xMTctODEuNS0xOTguNVQ0ODAtNzYwcS0xMTcgMC0xOTguNSA4MS41VDIwMC00ODB2NDBoMTYwdjMyMFptLTgwLTI0MGgtODB2MTYwaDgwdi0xNjBabTQwMCAwdjE2MGg4MHYtMTYwaC04MFptLTQwMCAwaC04MCA4MFptNDAwIDBoODAtODBaIi8+PC9zdmc+;" parent="1" vertex="1">
          <mxGeometry x="320" y="120" width="20" height="20" as="geometry" />
        </mxCell>
        <mxCell id="QFHJZdolUIHKQ8WvCYE6-19" value="" style="endArrow=classic;html=1;rounded=0;fillColor=#e51400;strokeColor=#B20000;strokeWidth=2;" parent="1" source="jdgYiCKV-6AsK4i46VtF-5" target="QFHJZdolUIHKQ8WvCYE6-54" edge="1">
          <mxGeometry width="50" height="50" relative="1" as="geometry">
            <mxPoint x="50" y="-40" as="sourcePoint" />
            <mxPoint x="60" y="-140" as="targetPoint" />
            <Array as="points" />
          </mxGeometry>
        </mxCell>
        <mxCell id="QFHJZdolUIHKQ8WvCYE6-65" value="" style="rounded=0;whiteSpace=wrap;html=1;fillColor=#fff2cc;strokeColor=#d6b656;" parent="1" vertex="1">
          <mxGeometry x="270" y="10" width="100" height="60" as="geometry" />
        </mxCell>
        <mxCell id="QFHJZdolUIHKQ8WvCYE6-66" value="" style="ellipse;whiteSpace=wrap;html=1;aspect=fixed;fillColor=#f5f5f5;fontColor=#333333;strokeColor=#666666;" parent="1" vertex="1">
          <mxGeometry x="310" y="45" width="40" height="40" as="geometry" />
        </mxCell>
        <mxCell id="QFHJZdolUIHKQ8WvCYE6-67" value="sound&lt;br&gt;card" style="text;html=1;strokeColor=none;fillColor=none;align=center;verticalAlign=middle;whiteSpace=wrap;rounded=0;fontStyle=1;fontSize=16;" parent="1" vertex="1">
          <mxGeometry x="260" y="15" width="80" height="30" as="geometry" />
        </mxCell>
        <mxCell id="QFHJZdolUIHKQ8WvCYE6-69" value="" style="shape=image;verticalLabelPosition=bottom;labelBackgroundColor=default;verticalAlign=top;aspect=fixed;imageAspect=0;image=data:image/svg+xml,PHN2ZyB4bWxucz0iaHR0cDovL3d3dy53My5vcmcvMjAwMC9zdmciIHdpZHRoPSIyNCIgdmlld0JveD0iMCAtOTYwIDk2MCA5NjAiIGhlaWdodD0iMjQiPjxwYXRoIGQ9Ik00ODAtNDAwcS01MCAwLTg1LTM1dC0zNS04NXYtMjQwcTAtNTAgMzUtODV0ODUtMzVxNTAgMCA4NSAzNXQzNSA4NXYyNDBxMCA1MC0zNSA4NXQtODUgMzVabTAtMjQwWm0tNDAgNTIwdi0xMjNxLTEwNC0xNC0xNzItOTN0LTY4LTE4NGg4MHEwIDgzIDU4LjUgMTQxLjVUNDgwLTMyMHE4MyAwIDE0MS41LTU4LjVUNjgwLTUyMGg4MHEwIDEwNS02OCAxODR0LTE3MiA5M3YxMjNoLTgwWm00MC0zNjBxMTcgMCAyOC41LTExLjVUNTIwLTUyMHYtMjQwcTAtMTctMTEuNS0yOC41VDQ4MC04MDBxLTE3IDAtMjguNSAxMS41VDQ0MC03NjB2MjQwcTAgMTcgMTEuNSAyOC41VDQ4MC00ODBaIi8+PC9zdmc+;" parent="1" vertex="1">
          <mxGeometry x="320" y="55" width="20" height="20" as="geometry" />
        </mxCell>
        <mxCell id="QFHJZdolUIHKQ8WvCYE6-70" value="" style="endArrow=classic;html=1;rounded=0;fillColor=#e51400;strokeColor=#B20000;strokeWidth=2;" parent="1" source="QFHJZdolUIHKQ8WvCYE6-54" target="QFHJZdolUIHKQ8WvCYE6-66" edge="1">
          <mxGeometry width="50" height="50" relative="1" as="geometry">
            <mxPoint x="340" y="250" as="sourcePoint" />
            <mxPoint x="340" y="160" as="targetPoint" />
            <Array as="points" />
          </mxGeometry>
        </mxCell>
        <mxCell id="QFHJZdolUIHKQ8WvCYE6-71" value="" style="endArrow=classic;html=1;rounded=0;fillColor=#e51400;strokeColor=#B20000;strokeWidth=2;" parent="1" source="QFHJZdolUIHKQ8WvCYE6-66" target="QFHJZdolUIHKQ8WvCYE6-9" edge="1">
          <mxGeometry width="50" height="50" relative="1" as="geometry">
            <mxPoint x="220" y="20" as="sourcePoint" />
            <mxPoint x="340" y="95" as="targetPoint" />
            <Array as="points" />
          </mxGeometry>
        </mxCell>
        <mxCell id="QFHJZdolUIHKQ8WvCYE6-72" value="" style="endArrow=classic;html=1;rounded=0;fillColor=#e51400;strokeColor=#B20000;strokeWidth=2;" parent="1" source="QFHJZdolUIHKQ8WvCYE6-22" target="QFHJZdolUIHKQ8WvCYE6-27" edge="1">
          <mxGeometry width="50" height="50" relative="1" as="geometry">
            <mxPoint x="340" y="55" as="sourcePoint" />
            <mxPoint x="340" y="-15" as="targetPoint" />
            <Array as="points" />
          </mxGeometry>
        </mxCell>
        <mxCell id="QFHJZdolUIHKQ8WvCYE6-73" value="" style="endArrow=classic;html=1;rounded=0;fillColor=#e51400;strokeColor=#B20000;strokeWidth=2;" parent="1" source="QFHJZdolUIHKQ8WvCYE6-22" target="QFHJZdolUIHKQ8WvCYE6-42" edge="1">
          <mxGeometry width="50" height="50" relative="1" as="geometry">
            <mxPoint x="495" y="-15" as="sourcePoint" />
            <mxPoint x="525" y="150" as="targetPoint" />
            <Array as="points" />
          </mxGeometry>
        </mxCell>
        <mxCell id="QFHJZdolUIHKQ8WvCYE6-74" value="DUT" style="text;html=1;strokeColor=none;fillColor=none;align=center;verticalAlign=middle;whiteSpace=wrap;rounded=0;fontStyle=1;fontSize=16;" parent="1" vertex="1">
          <mxGeometry x="680" y="100" width="60" height="30" as="geometry" />
        </mxCell>
        <mxCell id="QFHJZdolUIHKQ8WvCYE6-75" value="jack&lt;br&gt;cable" style="text;html=1;strokeColor=none;fillColor=none;align=center;verticalAlign=middle;whiteSpace=wrap;rounded=0;" parent="1" vertex="1">
          <mxGeometry x="330" y="85" width="60" height="30" as="geometry" />
        </mxCell>
        <mxCell id="QFHJZdolUIHKQ8WvCYE6-76" value="Ethernet&lt;br&gt;or Wi-Fi" style="text;html=1;strokeColor=none;fillColor=none;align=center;verticalAlign=middle;whiteSpace=wrap;rounded=0;" parent="1" vertex="1">
          <mxGeometry x="570" y="25" width="60" height="30" as="geometry" />
        </mxCell>
        <mxCell id="2s0VxUsEmC20woC3r4OB-1" value="DUT &lt;font style=&quot;font-size: 11px; font-weight: normal;&quot;&gt;(Device Under Test)&lt;/font&gt;" style="text;html=1;strokeColor=none;fillColor=none;align=center;verticalAlign=middle;whiteSpace=wrap;rounded=0;fontStyle=1;fontSize=16;" parent="1" vertex="1">
          <mxGeometry x="450" y="-115" width="140" height="30" as="geometry" />
        </mxCell>
      </root>
    </mxGraphModel>
  </diagram>
</mxfile>
